<svg width="18" height="16" viewBox="0 0 18 16" fill="none" xmlns="http://www.w3.org/2000/svg">
<path d="M8.72728 16C1.54037 16 0 14.5879 0 7.99994C0 6.18932 0.116351 4.76967 0.434295 3.66284C1.24839 4.47902 2.27568 5.46047 3.39147 6.33466C4.97398 7.57456 6.89057 8.72721 8.72728 8.72721C10.564 8.72721 12.4806 7.57456 14.0631 6.33466C15.1789 5.46047 16.2062 4.47902 17.0202 3.66285C17.3382 4.76967 17.4546 6.18932 17.4546 7.99994C17.4546 14.5879 15.9142 16 8.72728 16Z" fill="#F6F7B8"/>
<path d="M16.3862 2.23499C15.534 3.1035 14.4037 4.21988 13.1658 5.18975C11.6065 6.41144 10.0321 7.27274 8.72704 7.27274C7.42194 7.27274 5.8476 6.41144 4.28829 5.18975C3.05038 4.21988 1.92006 3.1035 1.06787 2.23499C2.22296 0.489164 4.49692 0 8.72704 0C12.9572 0 15.2311 0.489164 16.3862 2.23499Z" fill="#F6F7B8"/>
</svg>
