<svg width="16" height="17" viewBox="0 0 16 17" fill="none" xmlns="http://www.w3.org/2000/svg">
<path d="M15.0979 11.4996L12.1268 9.92148C11.3801 9.52415 10.4733 9.78527 10.0199 10.5346L9.50784 11.369C8.69704 11.0511 6.66478 10.001 5.32591 7.04355L6.33942 6.09562C6.91015 5.55636 7.05947 4.64813 6.68609 3.93857L5.0912 0.89037C4.86718 0.47031 4.48846 0.163769 4.05106 0.0502106C3.60835 -0.0632739 3.13895 0.0161567 2.76024 0.282969L0.738664 1.69073C0.221213 2.05402 -0.0668035 2.70684 0.0132393 3.35958C0.327922 6.05589 2.19482 15.0189 12.8043 16.9716C12.8949 16.9886 12.9856 17 13.0763 17C13.631 17 14.1485 16.6935 14.4578 16.1769L15.7487 13.9915C15.994 13.5714 16.0634 13.0663 15.9407 12.5894C15.818 12.1183 15.5086 11.7209 15.0979 11.4996Z" fill="#F6F7B8"/>
</svg>
 